<svg xmlns="http://www.w3.org/2000/svg" shape-rendering="geometricPrecision" text-rendering="geometricPrecision" image-rendering="optimizeQuality" fill-rule="evenodd" clip-rule="evenodd" viewBox="0 0 512 463.45"><path fill-rule="nonzero" d="M159.18 17.17C212.52-2.55 271.24-5.24 326.13 8.89l-10.99 43.07c-45.85-11.81-96.23-9.37-140.62 7.05l-15.34-41.84zm212.91 7.98c47.95 22.08 89.06 58.51 114.18 105.2l-39.23 21.1c-20.56-38.22-54.39-67.78-93.61-85.85l18.66-40.45zm132.63 151.48c11.22 41.7 9.42 85.64-5.06 126.33l-42.02-14.81c11.51-32.32 12.91-66.9 4.01-100l43.07-11.52zm-27.1 171.16c-21.23 33.18-51.59 60.94-85.78 80.34l-21.97-38.71c28.45-16.12 52.61-38.09 70.27-65.69l37.48 24.06zM347.31 448.18c-50.49 17.47-105.06 19.93-156.96 7.49l10.28-43.25c43.09 10.3 90.35 8.21 132.2-6.25l14.48 42.01zm-203.22-7.99c-46.15-20.33-86.57-53.95-112.77-97.26l38.19-23.02c21.55 35.63 54.6 62.76 92.54 79.47l-17.96 40.81zM10.51 297.58C-2.95 256.49-3.47 212.4 8.89 171l42.72 12.73c-9.78 32.8-9.38 67.52 1.26 100.07l-42.36 13.78zM28.5 125.3c20.6-36.03 51.08-65.81 86.62-87.04l22.85 38.18c-29.14 17.4-53.87 41.46-70.76 71L28.5 125.3z"/></svg>